<?xml version="1.0" standalone="no"?>
<!DOCTYPE svg PUBLIC "-//W3C//DTD SVG 20010904//EN"
 "http://www.w3.org/TR/2001/REC-SVG-20010904/DTD/svg10.dtd">
<svg version="1.0" xmlns="http://www.w3.org/2000/svg"
 width="700.000000pt" height="700.000000pt" viewBox="0 0 700.000000 700.000000"
 preserveAspectRatio="xMidYMid meet">
<metadata>
Created by potrace 1.14, written by Peter Selinger 2001-2017
</metadata>
<g transform="translate(0.000000,700.000000) scale(0.100000,-0.100000)"
fill="#000000" stroke="none">
<path d="M3295 6993 c-371 -30 -635 -82 -934 -185 -919 -317 -1674 -1011
-2064 -1898 -348 -793 -390 -1690 -117 -2511 296 -891 926 -1615 1770 -2035
1056 -524 2321 -477 3334 126 261 155 450 303 682 535 296 295 490 562 670
925 527 1060 475 2335 -135 3350 -242 401 -588 776 -968 1048 -523 374 -1124
590 -1787 642 -119 9 -356 11 -451 3z m1118 -3498 l907 -1815 -1126 0 -1126 0
6 23 c3 12 96 318 206 681 110 362 199 660 197 662 -2 2 -163 -304 -358 -681
l-354 -685 -542 0 -543 0 907 1815 c500 998 910 1815 913 1815 3 0 413 -817
913 -1815z"/>
</g>
</svg>
