<svg
      width="130"
      height="30"
      viewBox="0 0 132 36"
      fill="none"
      xmlns="http://www.w3.org/2000/svg"
    >
<path d="M18 0L0 36H10.7143L18 21.931L13.7143 36H36L18 0Z" fill="white"/>
<path d="M47.0508 9.74463H39V36H49.5932V19.7467C49.5932 16.8294 53.8305 16.8294 53.8305 19.7467V36H64V16.4127C64 16.4127 63.0424 11.667 60.5 9.99999C57.9576 8.33298 51.8898 7.49949 48.5 10C45.1102 12.5005 44.5085 19.7467 44.5085 19.7467C44.5085 16.8294 45.0842 13.3831 47.0508 9.74463Z" fill="white"/>
<path d="M67 12V36H77V12H67Z" fill="white"/>
<path d="M71.6915 1C67 1 67 5.875 67 5.875C67 5.875 67 10 71.6915 10C76.383 10 75.992 5.5 75.992 5.5C75.992 5.5 76.383 1 71.6915 1Z" fill="white"/>
<path d="M89.9409 1C83.5273 1 81.6409 4.07692 81.6409 11.7692H79V18.3077H81.6409V36H90.6955V18.3077H94.8455V11.7692H90.6955C90.7407 9.38046 91.6786 8.81554 94.8455 9.07692V1C94.8455 1 96.3546 1 89.9409 1Z" fill="white"/>
<path d="M97 12V36H107V12H97Z" fill="white"/>
<path d="M101.691 2C97 2 97 6.875 97 6.875C97 6.875 97 11 101.691 11C106.383 11 105.992 6.5 105.992 6.5C105.992 6.5 106.383 2 101.691 2Z" fill="white"/>
<path fillRule="evenodd" clipRule="evenodd" d="M122.571 0H132V35.3019H124.929C126.446 32.5693 128.071 26.7674 128.071 26.7674C128.071 26.7674 125.321 34.1381 122.179 35.3019C119.036 36.4657 116.679 35.9668 115.107 35.3019C113.536 34.637 110 32.9743 110 28.3191V19.3967C110 14.7415 111.964 11.638 115.5 10.8621C119.036 10.0863 122.571 10.8621 122.571 10.8621V0ZM118.643 26.7674V19.3967C118.643 17.8449 122.571 17.8449 122.571 19.3967V26.7674C122.571 28.3191 118.643 28.3191 118.643 26.7674Z" fill="white"/>
</svg>